# xmcd CD database file
#
# Track frame offsets:
#	150
#	19360
#	34757
#	48337
#	65290
#	76680
#	86730
#	103100
#	122685
#	138602
#	149642
#	183610
#	195650
#	204007
#	215607
#	236052
#	251385
#	266787
#	276650
#	284925
#	298205
#	313945
#
# Disc length: 4394 seconds
#
# Revision: 0
# Processed by: cddbd v1.5.2PL0 Copyright (c) Steve Scherf et al.
# Submitted via: CDex 1.79
#
DISCID=6a112816
DTITLE=Natalie Cole - Unforgettable with Love
DYEAR=1991
DGENRE=Jazz
TTITLE0=The Very Thought of You
TTITLE1=Paper Moon
TTITLE2=Route 66
TTITLE3=Mona Lisa
TTITLE4=L-O-V-E
TTITLE5=This Can't Be Love
TTITLE6=Smile
TTITLE7=Lush Life
TTITLE8=That Sunday That Summer
TTITLE9=Orange Colored Sky
TTITLE10=A Medley of: For Sentimental Reasons - Tenderly - Autumn Leaves
TTITLE11=Straighten Up and Fly Right
TTITLE12=Avalon
TTITLE13=Don't Get Around Much Anymore
TTITLE14=Too Young
TTITLE15=Nature Boy
TTITLE16=Darling, Je Vous Aime Beaucoup
TTITLE17=Almost Like Being in Love
TTITLE18=Thou Swell
TTITLE19=Non Dimenticar
TTITLE20=Our Love Is Here to Stay
TTITLE21=Unforgettable
EXTD=YEAR: 1991
EXTT0=
EXTT1=
EXTT2=
EXTT3=
EXTT4=
EXTT5=
EXTT6=
EXTT7=
EXTT8=
EXTT9=
EXTT10=
EXTT11=
EXTT12=
EXTT13=
EXTT14=
EXTT15=
EXTT16=
EXTT17=
EXTT18=
EXTT19=
EXTT20=
EXTT21=
PLAYORDER=
